#!OML:ASF F:\VICON\USERDATA\INSTALL\rory3\rory3.ASF
:FULLY-SPECIFIED
:DEGREES
755
root 0.11634 18.5719 -5.32559 -6.6929 16.0482 1.4689
lowerback 26.9298 -6.09594 -11.2232
upperback 8.78836 -10.7404 -2.78173
thorax -3.32809 -5.34823 6.16407
lowerneck -16.5738 -3.78473 -11.3651
upperneck 0.959596 -3.88305 16.6313
head 3.60305 -1.22577 6.79035
rclavicle 1.03368e-014 -3.18055e-015
rhumerus -25.2411 -4.54088 -64.0094
rradius 80.9155
rwrist -11.4585
rhand -22.0086 10.5451
rfingers 7.12502
rthumb 4.40043 -19.3891
lclavicle 1.03368e-014 -3.18055e-015
lhumerus 45.1238 -14.2069 82.7316
lradius 152.005
lwrist 37.1167
lhand -19.2173 13.5964
lfingers 7.12502
lthumb 7.09539 43.4574
rfemur -87.3062 -1.36778 1.89913
rtibia 123.113
rfoot -4.01249 6.20293
rtoes -14.6618
lfemur -8.79491 3.47512 -23.3037
ltibia 27.4729
lfoot -7.40943 -5.84637
ltoes 15.3705
756
root 0.12883 18.5851 -5.32236 -6.89658 16.0566 1.22894
lowerback 27.0831 -6.23004 -10.983
upperback 8.88194 -10.8584 -2.76904
thorax -3.3218 -5.40663 6.09068
lowerneck -16.3879 -3.82611 -11.3068
upperneck 0.868573 -3.96178 16.6755
head 3.55841 -1.27264 6.78675
rclavicle 7.07673e-014 -7.95139e-015
rhumerus -25.5714 -4.74203 -63.8314
rradius 80.9748
rwrist -11.7338
rhand -22.0373 10.7279
rfingers 7.12502
rthumb 4.37274 -19.2069
lclavicle 7.07673e-014 -7.95139e-015
lhumerus 44.623 -14.3209 83.1778
lradius 151.844
lwrist 37.3069
lhand -19.063 13.9533
lfingers 7.12502
lthumb 7.24436 43.8093
rfemur -88.5645 -1.61345 2.25563
rtibia 123.846
rfoot -3.85906 6.43364
rtoes -14.5269
lfemur -8.48532 3.46977 -23.0782
ltibia 27.2528
lfoot -7.34155 -5.83967
ltoes 15.3989
757
root 0.138257 18.5912 -5.318 -7.16985 16.0935 1.22261
lowerback 27.3653 -6.29841 -11.0462
upperback 9.12985 -10.9654 -2.75657
thorax -3.14155 -5.48086 6.17308
lowerneck -16.8761 -3.9249 -11.1918
upperneck 0.933429 -4.08221 16.6243
head 3.66851 -1.31209 6.73973
rclavicle -8.34896e-014 4.77083e-014
rhumerus -25.598 -5.16086 -63.6323
rradius 81.046
rwrist -11.9774
rhand -22.0306 10.8794
rfingers 7.12502
rthumb 4.37923 -19.0554
lclavicle -8.34896e-014 4.77083e-014
lhumerus 44.4064 -14.4322 83.5249
lradius 151.653
lwrist 37.2918
lhand -18.8213 13.8407
lfingers 7.12502
lthumb 7.47761 43.6885
rfemur -89.6669 -1.97533 2.40328
rtibia 124.587
rfoot -3.72928 6.77825
rtoes -14.3932
lfemur -8.02437 3.44088 -23.0933
ltibia 26.9954
lfoot -7.29646 -5.80312
ltoes 15.2944
758
root 0.145874 18.5958 -5.31428 -7.42685 16.1097 1.3101
lowerback 27.6847 -6.33775 -11.2399
upperback 9.35831 -11.0763 -2.75898
thorax -2.97453 -5.55721 6.31523
lowerneck -17.2797 -3.99815 -11.1548
upperneck 0.932434 -4.16108 16.689
head 3.74552 -1.33118 6.74789
rclavicle 1.00983e-013 -3.18055e-014
rhumerus -25.6447 -5.54482 -63.4106
rradius 81.1375
rwrist -12.2292
rhand -22.0169 10.7801
rfingers 7.12502
rthumb 4.39249 -19.1544
lclavicle 1.00983e-013 -3.18055e-014
lhumerus 44.1191 -14.6139 83.8193
lradius 151.492
lwrist 37.0222
lhand -18.5776 13.533
lfingers 7.12502
lthumb 7.71282 43.3723
rfemur -90.6836 -2.30678 2.457
rtibia 125.258
rfoot -3.59338 7.11758
rtoes -13.991
lfemur -7.59284 3.46593 -23.1996
ltibia 26.7878
lfoot -7.26173 -5.72931
ltoes 14.9268
759
root 0.153235 18.6008 -5.30594 -7.60747 16.1313 1.25846
lowerback 27.8305 -6.42772 -11.2764
upperback 9.5391 -11.1949 -2.72186
thorax -2.80085 -5.63636 6.40008
lowerneck -17.5795 -4.09559 -11.0983
upperneck 0.973685 -4.28496 16.6725
head 3.82115 -1.37964 6.72126
rclavicle 3.49861e-014 -6.36111e-015
rhumerus -25.6977 -5.92631 -63.1436
rradius 81.1342
rwrist -12.4767
rhand -21.916 10.6563
rfingers 7.12502
rthumb 4.48993 -19.2761
lclavicle 3.49861e-014 -6.36111e-015
lhumerus 43.8246 -14.9054 83.9539
lradius 151.432
lwrist 36.8171
lhand -18.7148 13.379
lfingers 7.12502
lthumb 7.58039 43.2231
rfemur -91.6853 -2.63071 2.69466
rtibia 125.894
rfoot -3.60485 7.2979
rtoes -13.2113
lfemur -7.29355 3.51726 -23.1523
ltibia 26.6231
lfoot -7.242 -5.7364
ltoes 14.6495
760
root 0.156135 18.6068 -5.29463 -7.83606 16.2534 1.06635
lowerback 27.9269 -6.56239 -11.2259
upperback 9.71918 -11.3401 -2.64827
thorax -2.60944 -5.73001 6.47727
lowerneck -17.7565 -4.15783 -11.1038
upperneck 1.00568 -4.36214 16.7218
head 3.87191 -1.40768 6.73142
rclavicle 7.39479e-014 1.43125e-014
rhumerus -25.8192 -6.30572 -62.8609
rradius 81.1517
rwrist -12.7662
rhand -21.7171 10.5244
rfingers 7.12502
rthumb 4.68192 -19.4038
lclavicle 7.39479e-014 1.43125e-014
lhumerus 43.459 -15.2487 83.9869
lradius 151.48
lwrist 36.8019
lhand -18.8777 12.979
lfingers 7.12502
lthumb 7.42324 42.8287
rfemur -92.4564 -2.98985 3.12268
rtibia 126.497
rfoot -3.76132 7.35436
rtoes -12.4825
lfemur -7.00362 3.51464 -22.9374
ltibia 26.5099
lfoot -7.17534 -5.85598
ltoes 14.79
761
root 0.155197 18.6126 -5.28643 -8.10955 16.3352 0.874686
lowerback 28.1225 -6.63722 -11.2327
upperback 9.85476 -11.442 -2.60433
thorax -2.5168 -5.79327 6.56278
lowerneck -17.803 -4.14322 -11.0786
upperneck 1.049 -4.36359 16.8956
head 3.89965 -1.39723 6.78507
rclavicle -9.70069e-014 5.40694e-014
rhumerus -26.177 -6.66421 -62.6261
rradius 81.2812
rwrist -13.2242
rhand -21.5695 10.3712
rfingers 7.12502
rthumb 4.82444 -19.5538
lclavicle -9.70069e-014 5.40694e-014
lhumerus 42.9903 -15.4534 84.1333
lradius 151.41
lwrist 36.787
lhand -18.6255 12.8709
lfingers 7.12502
lthumb 7.66664 42.7119
rfemur -93.0936 -3.18051 3.54468
rtibia 127.011
rfoot -3.9401 7.26956
rtoes -12.2089
lfemur -6.70387 3.53992 -22.7031
ltibia 26.4347
lfoot -7.11136 -5.95753
ltoes 15.103
